<?xml version="1.0" encoding="utf-8"?>
<!-- Generator: Adobe Illustrator 24.1.0, SVG Export Plug-In . SVG Version: 6.00 Build 0)  -->
<svg version="1.1" id="Layer_1" xmlns="http://www.w3.org/2000/svg" xmlns:xlink="http://www.w3.org/1999/xlink" x="0px" y="0px"
	 viewBox="0 0 200 50" style="enable-background:new 0 0 200 50;" xml:space="preserve">
<style type="text/css">
	.st0{fill:#FFFFFF;}
</style>
<g>
	<path class="st0" d="M136.9,3.4c0.3,4.4,0.6,8.8,0.9,13.3c-0.3,0.1-0.5,0.2-0.8,0.3c-0.4-0.7-0.8-1.5-1.3-2.2c-2-2.7-3.8-5.8-6.3-8
		c-5.5-4.8-13-3.9-17.7,1.7c-7,8.3-6.6,24,0.8,31.9c7.3,7.8,17.3,7,23.6-1.9c0.7-0.9,1.3-1.9,1.9-2.8c0.3,0.1,0.5,0.2,0.8,0.3
		c-0.3,0.9-0.5,1.9-1,2.7c-4.6,6.9-11.2,9.9-19.3,9c-8.2-1-14.2-5.4-17.3-13.2C96.9,23.7,100,7,116.3,2.9c4.5-1.1,9-0.7,13.2,1.3
		c2.7,1.4,4.9,2,6.8-1.4C136.5,3.1,136.7,3.3,136.9,3.4z"/>
	<path class="st0" d="M175.9,46.8c4.9-1.9,5.8-3,4.2-8.1c-2.7-8.8-6-17.4-9.2-26.7c-0.7,0.9-1,1.2-1.2,1.6
		c-2.8,7.9-5.7,15.7-8.4,23.6c-2.1,6.2-1.8,6.5,4.1,9.6c-5.2,0-9.9,0-14.6,0c7.6-2.9,8.2-10.3,10.6-16.4c3.3-8.2,6.1-16.5,9.3-24.7
		c0.4-0.9,1.3-1.7,2-2.5c0.5,0.8,1.3,1.6,1.6,2.5c4.1,10.7,8.2,21.4,12.4,32.1c1.5,3.8,2.9,7.9,7.9,8.9
		C188.5,46.8,182.2,46.8,175.9,46.8z"/>
	<path class="st0" d="M5.3,3.2c6.2,0,12.4,0,18.6,0c0,0.2,0,0.4,0.1,0.5c-0.6,0.2-1.3,0.4-1.9,0.5c-2.1,0.4-3.2,1.7-3,3.9
		c0.1,1.3,0.2,2.6,0.6,3.8c3,8.6,6,17.2,9,25.8c0.3,0,0.5,0,0.8,0c1.1-3,2.2-6,3.3-9c2-5.6,4-11.1,5.8-16.7c1.7-5.3,1.1-6.3-4.5-8.6
		c5.6,0,10.3,0,15,0c-5.9,1.6-7.3,6.8-9.1,11.5C36.2,24.5,32.7,34.3,29,44c-0.4,1-1.2,1.8-1.9,2.7c-0.7-1-1.6-1.8-2-2.9
		C21,33.3,17,22.6,12.9,12.1C11.4,8.3,10,4.3,5.3,3.2z"/>
	<path class="st0" d="M65.2,46.6c4.1-0.6,4.5-3.5,4.4-6.8c-0.1-10-0.2-19.9-0.2-29.9c0-3.3-1.5-5.5-4.7-6.6c5.5,0,11,0,17.4,0
		c-1.2,0.6-1.6,0.9-2.2,1c-2.6,0.5-4,2.2-4,4.7c0,10.6,0,21.2,0.1,31.8c0,3.5,2.5,4.6,5.3,5.7C76,46.6,70.6,46.6,65.2,46.6z"/>
</g>
</svg>
